<?xml version="1.0" standalone="no"?>
<!DOCTYPE svg PUBLIC "-//W3C//DTD SVG 20010904//EN"
 "http://www.w3.org/TR/2001/REC-SVG-20010904/DTD/svg10.dtd">
<svg version="1.0" xmlns="http://www.w3.org/2000/svg"
 width="260.000000pt" height="260.000000pt" viewBox="0 0 260.000000 260.000000"
 preserveAspectRatio="xMidYMid meet">
<metadata>
Created by potrace 1.14, written by Peter Selinger 2001-2017
</metadata>
<g transform="translate(0.000000,260.000000) scale(0.100000,-0.100000)"
fill="#000000" stroke="none">
<path d="M119 2466 c-3 -2 -4 -566 -2 -566 4 0 563 559 563 563 0 3 -556 5
-561 3z"/>
<path d="M1111 2408 c-480 -97 -852 -496 -916 -983 -7 -55 -7 -227 0 -289 40
-353 265 -687 581 -864 453 -253 1026 -171 1384 197 79 82 98 106 156 198 85
135 147 307 168 463 12 83 7 264 -9 350 -61 322 -239 589 -510 765 -146 95
-267 141 -455 174 -91 16 -294 10 -399 -11z m390 -293 c326 -69 569 -293 661
-612 20 -67 23 -100 22 -233 0 -146 -2 -160 -32 -250 -166 -500 -718 -735
-1188 -506 -172 83 -309 224 -394 401 -89 188 -106 376 -54 580 81 311 335
553 654 619 85 18 248 18 331 1z"/>
</g>
</svg>
