<svg width="360" height="74" viewBox="0 0 360 74" fill="none" xmlns="http://www.w3.org/2000/svg">
<path d="M38.5201 1.80725C19.0452 1.80725 3.27368 17.5788 3.27368 37.0537C3.27368 56.5286 19.0452 72.3001 38.5201 72.3001C57.995 72.3001 73.7665 56.5286 73.7665 37.0537C73.7665 17.5788 57.995 1.80725 38.5201 1.80725ZM38.5201 63.1054C24.0895 63.1054 12.4684 51.4204 12.4684 37.0537C12.4684 22.6869 24.1534 11.002 38.5201 11.002C52.8869 11.002 64.5718 22.6869 64.5718 37.0537C64.5718 51.4204 52.9507 63.1054 38.5201 63.1054Z" fill="white"/>
<path d="M18.5982 0.147217H1.67737V17.1319C5.5085 9.98044 11.3829 4.0422 18.5982 0.147217Z" fill="#00E0BA"/>
<path d="M140.173 15.2163L161.436 57.2311C161.436 57.2311 152.305 53.9108 140.173 53.9108C128.041 53.9108 118.91 57.2311 118.91 57.2311L140.173 15.2163Z" fill="#00E0BA"/>
<path d="M122.23 16.8126V24.4749H112.397V57.1672H104.416V24.4749H94.9656V16.8126H122.23Z" fill="white"/>
<path d="M200.577 16.8127V58.8274H200.386L172.163 33.3504L172.354 57.2311H164.309V15.2803H164.628L192.787 41.1404L192.596 16.8766L200.577 16.8127Z" fill="white"/>
<path d="M240.102 55.1879C238.505 55.8903 236.781 56.4649 234.866 56.9119C232.95 57.3588 231.226 57.6143 229.63 57.6143C225.352 57.6143 221.584 56.7842 218.392 55.124C215.135 53.4639 212.645 51.1652 210.921 48.228C209.197 45.2908 208.303 41.9066 208.303 38.1393C208.303 33.4143 209.261 29.4555 211.113 26.1351C212.964 22.8787 215.455 20.3884 218.647 18.7921C221.776 17.1958 225.288 16.3657 229.055 16.3657C231.482 16.3657 233.78 16.6212 235.951 17.1958C238.122 17.7705 240.038 18.4729 241.634 19.3668L239.08 26.7737C237.995 26.199 236.59 25.6243 234.738 25.1774C232.886 24.6665 231.354 24.4111 230.077 24.4111C225.671 24.4111 222.351 25.4966 219.988 27.7314C217.689 29.9024 216.476 33.1589 216.476 37.5008C216.476 39.9911 217.051 42.162 218.2 44.0138C219.35 45.8655 220.946 47.2702 222.925 48.2918C224.969 49.2496 227.267 49.7605 229.885 49.7605C232.375 49.7605 234.227 49.4412 235.44 48.7388V43.7583H228.481V36.0961H243.486V53.1446C242.847 53.7831 241.698 54.4855 240.102 55.1879Z" fill="white"/>
<path d="M279.754 16.8126V24.4749H260.151V33.0949H277.455V40.7572H260.151V49.505H280.52V57.1672H252.233V16.8126H279.754Z" fill="white"/>
<path d="M324.834 16.8127V58.8274H324.642L296.419 33.3504L296.611 57.2311H288.566V15.2803H288.885L317.044 41.1404L316.852 16.8766L324.834 16.8127Z" fill="white"/>
<path d="M359.441 16.8126V24.4749H349.608V57.1672H341.627V24.4749H332.177V16.8126H359.441Z" fill="white"/>
</svg>
