<svg width="25" height="25" viewBox="0 0 25 25" fill="none" xmlns="http://www.w3.org/2000/svg">
<path d="M24.6445 12.6444C24.6445 19.2718 19.2719 24.6444 12.6445 24.6444C6.01711 24.6444 0.644531 19.2718 0.644531 12.6444C0.644531 6.01699 6.01711 0.644409 12.6445 0.644409C19.2719 0.644409 24.6445 6.01699 24.6445 12.6444ZM4.23285 12.6444C4.23285 17.2901 7.99889 21.0561 12.6445 21.0561C17.2902 21.0561 21.0562 17.2901 21.0562 12.6444C21.0562 7.99877 17.2902 4.23273 12.6445 4.23273C7.99889 4.23273 4.23285 7.99877 4.23285 12.6444Z" fill="url(#paint0_angular_1625_17188)"/>
<circle cx="12.7646" cy="22.8444" r="1.8" fill="#00E0BA"/>
<defs>
<radialGradient id="paint0_angular_1625_17188" cx="0" cy="0" r="1" gradientUnits="userSpaceOnUse" gradientTransform="translate(12.6445 12.6444) rotate(90) scale(12)">
<stop stop-color="#00E0BA"/>
<stop offset="0.175675" stop-color="#00E0BA"/>
<stop offset="1" stop-color="white" stop-opacity="0"/>
</radialGradient>
</defs>
</svg>
