<svg width="161" height="33" viewBox="0 0 161 33" fill="none" xmlns="http://www.w3.org/2000/svg">
<path d="M16.9243 1.10449C8.26882 1.10449 1.25928 8.11405 1.25928 16.7696C1.25928 25.4251 8.26882 32.4347 16.9243 32.4347C25.5799 32.4347 32.5894 25.4251 32.5894 16.7696C32.5894 8.11405 25.5799 1.10449 16.9243 1.10449ZM16.9243 28.3481C10.5107 28.3481 5.34581 23.1548 5.34581 16.7696C5.34581 10.3844 10.5391 5.19103 16.9243 5.19103C23.3096 5.19103 28.5029 10.3844 28.5029 16.7696C28.5029 23.1548 23.3379 28.3481 16.9243 28.3481Z" fill="black"/>
<path d="M8.07018 0.366638H0.549805V7.91539C2.25253 4.73697 4.86338 2.09774 8.07018 0.366638Z" fill="#00E0BA"/>
<path d="M62.1033 7.06403L71.5535 25.7373C71.5535 25.7373 67.4953 24.2616 62.1033 24.2616C56.7114 24.2616 52.6532 25.7373 52.6532 25.7373L62.1033 7.06403Z" fill="#00E0BA"/>
<path d="M54.1005 7.80188V11.2073H49.7302V25.7373H46.1828V11.2073H41.9828V7.80188H54.1005Z" fill="black"/>
<path d="M88.9496 7.80188V26.4751H88.8361L76.2927 15.152L76.3778 25.7656H72.8021V7.12079H72.944L85.459 18.6142L85.3739 7.83026L88.9496 7.80188Z" fill="black"/>
<path d="M106.516 24.8291C105.807 25.1413 105.04 25.3967 104.189 25.5953C103.338 25.794 102.571 25.9075 101.862 25.9075C99.9606 25.9075 98.2863 25.5386 96.8673 24.8007C95.42 24.0629 94.3132 23.0413 93.547 21.7358C92.7808 20.4304 92.3835 18.9263 92.3835 17.252C92.3835 15.152 92.8092 13.3925 93.6322 11.9168C94.4551 10.4695 95.5619 9.3627 96.9808 8.65323C98.3714 7.94376 99.9322 7.57483 101.607 7.57483C102.685 7.57483 103.707 7.68835 104.671 7.94376C105.636 8.19917 106.488 8.51133 107.197 8.90863L106.062 12.2006C105.58 11.9452 104.955 11.6898 104.132 11.4911C103.309 11.2641 102.628 11.1506 102.061 11.1506C100.103 11.1506 98.6268 11.633 97.5768 12.6263C96.5552 13.5911 96.016 15.0384 96.016 16.9682C96.016 18.075 96.2714 19.0399 96.7822 19.8628C97.293 20.6858 98.0025 21.3102 98.8822 21.7642C99.7903 22.1899 100.812 22.4169 101.976 22.4169C103.082 22.4169 103.905 22.275 104.444 21.9629V19.8061H101.351V16.4006H108.02V23.9778C107.708 24.2048 107.226 24.517 106.516 24.8291Z" fill="black"/>
<path d="M124.139 7.80188V11.2073H115.427V15.0385H123.118V18.4439H115.427V22.3318H124.48V25.7373H111.908V7.80188H124.139Z" fill="black"/>
<path d="M144.175 7.80188V26.4751H144.09L131.546 15.152L131.631 25.7656H128.056V7.12079H128.197L140.713 18.6142L140.627 7.83026L144.175 7.80188Z" fill="black"/>
<path d="M159.556 7.80188V11.2073H155.186V25.7373H151.638V11.2073H147.438V7.80188H159.556Z" fill="black"/>
</svg>
